<?xml version="1.0" standalone="no"?>
<!DOCTYPE svg PUBLIC "-//W3C//DTD SVG 20010904//EN"
 "http://www.w3.org/TR/2001/REC-SVG-20010904/DTD/svg10.dtd">
<svg version="1.0" xmlns="http://www.w3.org/2000/svg"
 width="1080.000000pt" height="1080.000000pt" viewBox="0 0 1080.000000 1080.000000"
 preserveAspectRatio="xMidYMid meet">

<g transform="translate(0.000000,1080.000000) scale(0.100000,-0.100000)"
fill="#000000" stroke="none">
<path d="M2936 6652 c4 -15 -9 -29 -58 -65 -103 -73 -185 -194 -322 -472 -84
-172 -256 -556 -256 -574 0 -6 6 -22 14 -34 7 -12 53 -96 102 -187 l89 -165 8
240 c11 353 35 465 131 599 49 69 302 318 346 341 92 47 99 -23 99 -885 0
-636 -6 -831 -26 -851 -8 -8 -21 -7 -47 2 -33 12 -38 11 -63 -13 -81 -74 -532
-322 -552 -303 -8 8 41 54 91 86 26 17 48 35 48 40 0 10 -241 435 -347 612
-49 81 -68 106 -77 97 -8 -8 -12 -125 -14 -389 l-4 -379 84 -32 c45 -17 115
-42 153 -55 315 -106 756 -98 1054 19 64 26 248 120 266 137 5 5 -46 9 -128 9
l-137 0 0 500 0 499 98 -45 c222 -103 273 -161 329 -375 14 -54 30 -96 34 -93
11 6 11 641 0 668 -5 14 -12 2 -25 -45 -24 -87 -60 -147 -93 -155 -34 -9 -88
6 -227 60 l-111 43 -3 429 c-2 236 0 448 3 472 6 38 9 42 28 37 12 -4 121 -55
242 -115 198 -97 226 -113 271 -162 89 -98 141 -224 164 -402 14 -101 29 -151
42 -138 15 15 29 221 26 387 l-3 149 -265 123 c-525 242 -858 384 -935 399
-30 5 -33 4 -29 -14z"/>
<path d="M2630 6634 c-408 -63 -733 -247 -954 -541 -224 -299 -294 -681 -185
-1006 51 -151 166 -347 271 -462 l55 -59 6 154 c4 84 7 409 7 723 l0 569 -37
-6 c-21 -4 -46 -9 -55 -12 -10 -3 -18 0 -18 6 0 14 111 85 250 158 188 100
256 115 185 42 -55 -56 -60 -113 -49 -565 l9 -370 119 255 c280 600 356 777
364 848 4 37 2 42 -15 42 -12 0 -37 -7 -56 -15 -41 -17 -77 -20 -77 -6 0 14
90 71 265 166 88 48 162 89 164 91 11 10 -164 1 -249 -12z"/>
<path d="M6136 6323 c-3 -10 -82 -337 -176 -728 -229 -951 -229 -955 -251
-997 -22 -44 -63 -68 -114 -68 -31 0 -35 -3 -35 -25 l0 -25 195 0 195 0 0 25
c0 24 -3 25 -55 25 -67 0 -112 21 -121 56 -7 29 11 127 64 339 l37 150 194 0
194 0 68 -265 c38 -146 69 -268 69 -272 0 -5 -31 -8 -70 -8 -68 0 -70 -1 -70
-25 l0 -25 260 0 260 0 0 25 c0 23 -3 25 -48 25 l-47 0 -234 905 -235 905 -37
0 c-27 0 -39 -5 -43 -17z m19 -823 c47 -184 88 -343 91 -352 5 -17 -8 -18
-176 -18 -141 0 -181 3 -178 13 3 6 42 166 88 354 46 189 85 341 86 340 1 -1
41 -153 89 -337z"/>
<path d="M4458 6315 c-5 -5 -8 -17 -8 -27 0 -15 8 -18 60 -18 l60 0 0 -870 0
-870 -60 0 c-58 0 -60 -1 -60 -26 l0 -26 353 4 c329 4 356 6 419 27 122 40
209 131 251 266 31 100 31 301 -2 393 -40 116 -108 195 -208 242 -29 14 -53
30 -53 37 0 7 18 22 40 33 122 62 200 216 200 395 0 228 -107 371 -312 420
-70 17 -667 34 -680 20z m549 -69 c140 -70 224 -279 194 -476 -29 -186 -122
-274 -304 -287 l-87 -6 0 392 0 392 23 9 c35 16 120 4 174 -24z m18 -842 c69
-24 145 -102 173 -176 42 -113 51 -302 21 -437 -24 -108 -90 -197 -174 -237
-41 -20 -66 -24 -142 -24 l-93 0 0 451 0 452 83 -6 c45 -3 104 -14 132 -23z"/>
<path d="M6807 6314 c-4 -4 -7 -16 -7 -26 0 -16 9 -18 76 -18 61 0 79 -4 90
-17 11 -15 13 -169 14 -818 0 -521 -4 -813 -10 -837 -15 -51 -42 -68 -112 -68
-55 0 -58 -1 -58 -25 l0 -25 206 0 205 0 -3 23 c-3 20 -10 23 -70 27 -80 6
-98 20 -109 87 -9 55 -12 1479 -3 1471 3 -4 182 -370 397 -815 l392 -808 55 0
55 0 5 883 5 884 24 19 c17 14 39 19 88 19 61 0 64 1 61 23 -3 22 -4 22 -200
25 l-198 2 0 -25 c0 -24 3 -25 59 -25 43 0 65 -5 82 -19 l24 -19 2 -609 2
-608 -25 50 c-14 28 -157 320 -318 650 l-292 600 -215 3 c-119 1 -218 -1 -222
-4z"/>
<path d="M8197 6313 c-4 -3 -7 -15 -7 -25 0 -16 9 -18 65 -18 l65 0 0 -870 0
-869 -62 -3 c-57 -3 -63 -5 -66 -25 l-3 -23 255 0 256 0 0 25 c0 24 -3 25 -60
25 l-60 0 0 428 c0 235 4 432 8 439 5 8 95 -156 233 -425 l226 -437 -74 -3
c-70 -3 -73 -4 -73 -27 l0 -25 290 0 290 0 0 25 c0 24 -2 25 -67 25 l-68 1
-275 540 c-151 298 -276 548 -278 558 -4 25 340 503 404 562 56 51 129 79 206
79 45 0 49 2 46 23 l-3 22 -252 3 -253 2 0 -25 c0 -24 2 -25 63 -25 109 0 132
-39 79 -135 -23 -40 -461 -644 -493 -680 -5 -5 -9 168 -9 403 l0 412 55 0 c52
0 55 1 55 25 l0 25 -243 0 c-134 0 -247 -3 -250 -7z"/>
<path d="M2750 4745 c0 -25 68 -153 87 -164 13 -7 28 -4 55 12 42 23 49 42 19
52 -11 3 -47 30 -81 60 -63 57 -80 65 -80 40z"/>
</g>
</svg>
